{"accessors" : [{"bufferView" : 0, "byteOffset" : 0, "componentType" : 5123, "count" : 241920, "type" : "SCALAR", "max" : [50493], "min" : [0]}, {"bufferView" : 1, "byteOffset" : 0, "componentType" : 5126, "count" : 50494, "type" : "VEC3", "max" : [101.478996276855, -18, 116.30899810791], "min" : [-97, -59.7000007629395, 0]}, {"bufferView" : 1, "byteOffset" : 12, "componentType" : 5126, "count" : 50494, "type" : "VEC4", "max" : [1, 0.980392158031464, 0.980392158031464, 1], "min" : [0, 0.10196078568697, 0.0745098069310188, 1]}], "asset" : {"generator" : "Aspose.3D 20.2.1", "version" : "2.0"}, "buffers" : [{"uri" : "buffer.bin", "byteLength" : 1897680}], "bufferViews" : [{"buffer" : 0, "byteOffset" : 0, "byteLength" : 483840, "target" : 34963}, {"buffer" : 0, "byteOffset" : 483844, "byteLength" : 1413832, "byteStride" : 28, "target" : 34962}], "materials" : [{"pbrMetallicRoughness" : {"baseColorFactor" : [1, 1, 1, 1], "metallicFactor" : 0.5, "roughnessFactor" : 0.5}, "emissiveFactor" : [0, 0, 0], "alphaMode" : "OPAQUE", "doubleSided" : false}], "meshes" : [{"primitives" : [{"attributes" : {"POSITION" : 1, "COLOR" : 2}, "indices" : 0, "material" : 0, "mode" : 4}]}], "nodes" : [{"mesh" : 0, "name" : "Mesh_Mesh_head_geo.001_lambert2SG.001"}, {"children" : [0], "matrix" : [1, 0, 0, 0, 0, 2.22044604925031E-16, -1, 0, 0, 1, 2.22044604925031E-16, 0, 0, 0, 0, 1]}], "scene" : 0, "scenes" : [{"nodes" : [1]}]}